<svg id="Calque_1" data-name="Calque 1" xmlns="http://www.w3.org/2000/svg" viewBox="0 0 793 505"><defs><style>.cls-1{fill:#fff;stroke:#fff;stroke-miterlimit:10;}</style></defs><path class="cls-1" d="M770.91,21.09A71.77,71.77,0,0,0,720,0H72A72,72,0,0,0,0,72V432a72,72,0,0,0,72,72H720a72,72,0,0,0,72-72V72A71.77,71.77,0,0,0,770.91,21.09ZM720,144H576a72,72,0,0,0-72,72v72a72,72,0,0,0,144,0H576V216H720V432H432V144H216a72,72,0,0,0-72,72v72a72,72,0,0,0,144,0H216V216H360V432H72V72H720Z" transform="translate(0.5 0.5)"/></svg>